<svg width="25" height="25" viewBox="0 0 25 25" fill="none" xmlns="http://www.w3.org/2000/svg">
<g clip-path="url(#clip0_6944_971)">
<path d="M19.5 4.125H18.4C18.1679 2.99641 17.5538 1.98235 16.6613 1.25372C15.7687 0.52509 14.6522 0.126455 13.5 0.125L11.5 0.125C10.3478 0.126455 9.23132 0.52509 8.33875 1.25372C7.44618 1.98235 6.8321 2.99641 6.6 4.125H5.5C4.17441 4.12659 2.90356 4.65388 1.96622 5.59122C1.02888 6.52856 0.501588 7.79941 0.5 9.125L0.5 19.125C0.501588 20.4506 1.02888 21.7214 1.96622 22.6588C2.90356 23.5961 4.17441 24.1234 5.5 24.125H19.5C20.8256 24.1234 22.0964 23.5961 23.0338 22.6588C23.9711 21.7214 24.4984 20.4506 24.5 19.125V9.125C24.4984 7.79941 23.9711 6.52856 23.0338 5.59122C22.0964 4.65388 20.8256 4.12659 19.5 4.125ZM11.5 2.125H13.5C14.1183 2.12756 14.7206 2.32108 15.2247 2.67909C15.7288 3.03709 16.1099 3.54209 16.316 4.125H8.684C8.89008 3.54209 9.27123 3.03709 9.7753 2.67909C10.2794 2.32108 10.8817 2.12756 11.5 2.125ZM5.5 6.125H19.5C20.2956 6.125 21.0587 6.44107 21.6213 7.00368C22.1839 7.56629 22.5 8.32935 22.5 9.125V12.125H2.5V9.125C2.5 8.32935 2.81607 7.56629 3.37868 7.00368C3.94129 6.44107 4.70435 6.125 5.5 6.125ZM19.5 22.125H5.5C4.70435 22.125 3.94129 21.8089 3.37868 21.2463C2.81607 20.6837 2.5 19.9206 2.5 19.125V14.125H11.5V15.125C11.5 15.3902 11.6054 15.6446 11.7929 15.8321C11.9804 16.0196 12.2348 16.125 12.5 16.125C12.7652 16.125 13.0196 16.0196 13.2071 15.8321C13.3946 15.6446 13.5 15.3902 13.5 15.125V14.125H22.5V19.125C22.5 19.9206 22.1839 20.6837 21.6213 21.2463C21.0587 21.8089 20.2956 22.125 19.5 22.125Z" fill="white"/>
</g>
<defs>
<clipPath id="clip0_6944_971">
<rect width="24" height="24" fill="white" transform="translate(0.5 0.125)"/>
</clipPath>
</defs>
</svg>
