<svg width="25" height="24" viewBox="0 0 25 24" fill="none" xmlns="http://www.w3.org/2000/svg">
<path d="M12.6836 10.3638V13.8493H17.6261C17.4091 14.9702 16.7578 15.9193 15.781 16.5575L18.7615 18.8239C20.4981 17.253 21.4999 14.9457 21.4999 12.2048C21.4999 11.5666 21.4415 10.9529 21.3329 10.3639L12.6836 10.3638Z" fill="#4285F4"/>
<path d="M4.48534 7.96655C3.85921 9.17742 3.50024 10.5438 3.50024 12.0002C3.50024 13.4565 3.85921 14.8229 4.48534 16.0338C4.48534 16.0419 7.54106 13.7101 7.54106 13.7101C7.35739 13.1701 7.24882 12.5974 7.24882 12.0001C7.24882 11.4027 7.35739 10.83 7.54106 10.29L4.48534 7.96655Z" fill="#FBBC05"/>
<path d="M12.6836 6.58365C14.0361 6.58365 15.2383 7.04183 16.1985 7.92548L18.8283 5.34823C17.2337 3.89188 15.1632 3 12.6836 3C9.09362 3 5.99624 5.02092 4.48511 7.9664L7.54074 10.29C8.26705 8.16274 10.2958 6.58365 12.6836 6.58365Z" fill="#EA4335"/>
<path d="M7.53679 13.7131L6.86457 14.2174L4.48511 16.0338C5.99624 18.971 9.09343 21.0002 12.6834 21.0002C15.163 21.0002 17.2418 20.1983 18.7613 18.8238L15.7808 16.5574C14.9626 17.0974 13.919 17.4247 12.6834 17.4247C10.2957 17.4247 8.26694 15.8456 7.54054 13.7183L7.53679 13.7131Z" fill="#34A853"/>
</svg>
