<svg width="224" height="136" viewBox="0 0 224 136" fill="none" xmlns="http://www.w3.org/2000/svg">
<g clip-path="url(#clip0_6922_12478)">
<path d="M68.0007 45.3368C63.5176 45.3368 59.1353 46.6662 55.4077 49.1568C51.6802 51.6475 48.775 55.1875 47.0594 59.3293C45.3438 63.4711 44.8949 68.0286 45.7695 72.4255C46.6441 76.8224 48.8029 80.8612 51.9729 84.0312C55.1429 87.2012 59.1817 89.36 63.5786 90.2346C67.9755 91.1092 72.533 90.6603 76.6748 88.9447C80.8166 87.2291 84.3567 84.3239 86.8473 80.5964C89.3379 76.8689 90.6673 72.4865 90.6673 68.0035C90.6673 61.9919 88.2792 56.2265 84.0284 51.9757C79.7776 47.7249 74.0122 45.3368 68.0007 45.3368ZM68.0007 79.3368C65.7591 79.3368 63.568 78.6721 61.7042 77.4268C59.8404 76.1815 58.3878 74.4114 57.53 72.3405C56.6722 70.2696 56.4478 67.9909 56.8851 65.7924C57.3224 63.594 58.4018 61.5746 59.9868 59.9896C61.5718 58.4046 63.5912 57.3252 65.7896 56.8879C67.9881 56.4506 70.2668 56.675 72.3377 57.5328C74.4086 58.3906 76.1787 59.8432 77.424 61.707C78.6693 63.5708 79.334 65.7619 79.334 68.0035C79.334 71.0092 78.1399 73.8919 76.0145 76.0173C73.8891 78.1427 71.0064 79.3368 68.0007 79.3368Z" fill="#005294"/>
<path d="M120.667 78.7666L118.15 77.316C119.283 71.1531 119.283 64.8355 118.15 58.6726L120.667 57.222C122.601 56.1057 124.297 54.6193 125.658 52.8476C127.018 51.076 128.016 49.0537 128.595 46.8963C129.174 44.7389 129.322 42.4886 129.031 40.2739C128.74 38.0592 128.016 35.9234 126.9 33.9886C125.784 32.0538 124.297 30.3578 122.526 28.9975C120.754 27.6371 118.732 26.639 116.574 26.0602C114.417 25.4814 112.166 25.3332 109.952 25.624C107.737 25.9149 105.601 26.6391 103.667 27.7553L101.145 29.2116C96.3822 25.1425 90.9089 21.988 85.0005 19.907V17C85.0005 12.4913 83.2094 8.16727 80.0213 4.97915C76.8332 1.79104 72.5092 -3.05176e-05 68.0005 -3.05176e-05C63.4918 -3.05176e-05 59.1678 1.79104 55.9797 4.97915C52.7916 8.16727 51.0005 12.4913 51.0005 17V19.907C45.0924 21.9955 39.621 25.1577 34.8618 29.2343L32.3288 27.7666C28.4213 25.5123 23.7783 24.9025 19.4212 26.0715C15.0641 27.2405 11.3498 30.0924 9.09549 34C6.84115 37.9075 6.2314 42.5505 7.40037 46.9076C8.56935 51.2647 11.4213 54.979 15.3288 57.2333L17.8448 58.684C16.7121 64.8468 16.7121 71.1645 17.8448 77.3273L15.3288 78.778C11.4213 81.0323 8.56935 84.7466 7.40037 89.1037C6.2314 93.4608 6.84115 98.1038 9.09549 102.011C11.3498 105.919 15.0641 108.771 19.4212 109.94C23.7783 111.109 28.4213 110.499 32.3288 108.245L34.8505 106.788C39.6148 110.858 45.09 114.013 51.0005 116.093V119C51.0005 123.509 52.7916 127.833 55.9797 131.021C59.1678 134.209 63.4918 136 68.0005 136C72.5092 136 76.8332 134.209 80.0213 131.021C83.2094 127.833 85.0005 123.509 85.0005 119V116.093C90.9086 114.004 96.38 110.842 101.139 106.766L103.672 108.228C107.58 110.482 112.223 111.092 116.58 109.923C120.937 108.754 124.651 105.902 126.906 101.994C129.16 98.0868 129.77 93.4438 128.601 89.0867C127.432 84.7296 124.58 81.0153 120.672 78.761L120.667 78.7666ZM106.228 57.3693C108.147 64.3227 108.147 71.6659 106.228 78.6193C105.893 79.8295 105.969 81.1168 106.445 82.2789C106.921 83.441 107.769 84.4121 108.857 85.0396L115 88.587C116.302 89.3384 117.253 90.5764 117.642 92.0286C118.031 93.4808 117.828 95.0282 117.077 96.3305C116.325 97.6327 115.087 98.5831 113.635 98.9726C112.183 99.3621 110.635 99.1587 109.333 98.4073L103.179 94.8486C102.091 94.2181 100.823 93.9678 99.5766 94.1371C98.33 94.3064 97.1752 94.8857 96.2942 95.7836C91.2503 100.933 84.8961 104.607 77.9172 106.409C76.699 106.722 75.6197 107.431 74.8492 108.426C74.0787 109.42 73.6609 110.642 73.6615 111.9V119C73.6615 120.503 73.0645 121.944 72.0018 123.007C70.9391 124.07 69.4977 124.667 67.9948 124.667C66.4919 124.667 65.0506 124.07 63.9879 123.007C62.9252 121.944 62.3282 120.503 62.3282 119V111.905C62.3288 110.648 61.9109 109.425 61.1404 108.431C60.37 107.437 59.2906 106.727 58.0725 106.414C51.0931 104.605 44.7407 100.923 39.7012 95.7666C38.8201 94.8687 37.6653 94.2894 36.4188 94.1201C35.1722 93.9508 33.9048 94.2011 32.8162 94.8316L26.6735 98.3846C26.0288 98.7626 25.3157 99.0093 24.5753 99.1105C23.8348 99.2118 23.0817 99.1655 22.3592 98.9745C21.6367 98.7835 20.9591 98.4515 20.3655 97.9975C19.7718 97.5436 19.2738 96.9767 18.9002 96.3295C18.5265 95.6823 18.2845 94.9676 18.1882 94.2265C18.0919 93.4854 18.1431 92.7326 18.3389 92.0114C18.5347 91.2902 18.8712 90.6148 19.3291 90.0242C19.787 89.4336 20.3572 88.9393 21.0068 88.57L27.1495 85.0226C28.2372 84.3951 29.0856 83.424 29.5616 82.2619C30.0375 81.0998 30.1139 79.8125 29.7788 78.6023C27.8598 71.6489 27.8598 64.3057 29.7788 57.3523C30.1079 56.1446 30.0278 54.862 29.5511 53.7046C29.0744 52.5472 28.2279 51.5803 27.1438 50.9546L21.0012 47.4073C19.6989 46.6559 18.7485 45.4179 18.359 43.9657C17.9695 42.5135 18.1729 40.9661 18.9243 39.6638C19.6758 38.3615 20.9138 37.4111 22.3659 37.0217C23.8181 36.6322 25.3656 36.8355 26.6678 37.587L32.8218 41.1456C33.9074 41.7775 35.1722 42.0308 36.4175 41.8657C37.6627 41.7006 38.8178 41.1263 39.7012 40.2333C44.745 35.0842 51.0992 31.4104 58.0782 29.6083C59.3001 29.2942 60.3822 28.5812 61.1531 27.5825C61.924 26.5837 62.3395 25.3563 62.3338 24.0946V17C62.3338 15.4971 62.9308 14.0557 63.9936 12.993C65.0563 11.9303 66.4976 11.3333 68.0005 11.3333C69.5034 11.3333 70.9447 11.9303 72.0074 12.993C73.0701 14.0557 73.6672 15.4971 73.6672 17V24.0946C73.6665 25.3524 74.0844 26.5746 74.8549 27.5688C75.6253 28.5629 76.7047 29.2725 77.9228 29.5856C84.9042 31.3942 91.2587 35.076 96.2998 40.2333C97.1809 41.1313 98.3357 41.7106 99.5822 41.8798C100.829 42.0491 102.096 41.7988 103.185 41.1683L109.327 37.6153C109.972 37.2374 110.685 36.9907 111.426 36.8894C112.166 36.7882 112.919 36.8344 113.642 37.0254C114.364 37.2164 115.042 37.5485 115.636 38.0024C116.229 38.4564 116.727 39.0233 117.101 39.6704C117.475 40.3176 117.716 41.0324 117.813 41.7734C117.909 42.5145 117.858 43.2673 117.662 43.9886C117.466 44.7098 117.13 45.3851 116.672 45.9758C116.214 46.5664 115.644 47.0606 114.994 47.43L108.851 50.9773C107.769 51.6046 106.925 52.5723 106.451 53.7296C105.976 54.8868 105.898 56.1685 106.228 57.375V57.3693Z" fill="#005294"/>
</g>
<g clip-path="url(#clip1_6922_12478)">
<path d="M180.001 29.3356C177.1 29.3356 174.264 30.1958 171.852 31.8074C169.44 33.4189 167.561 35.7096 166.45 38.3895C165.34 41.0695 165.05 44.0185 165.616 46.8636C166.182 49.7086 167.579 52.322 169.63 54.3731C171.681 56.4243 174.294 57.8212 177.139 58.3871C179.984 58.953 182.933 58.6626 185.613 57.5525C188.293 56.4424 190.584 54.5625 192.196 52.1506C193.807 49.7387 194.667 46.903 194.667 44.0022C194.667 40.1124 193.122 36.3819 190.372 33.6313C187.621 30.8808 183.891 29.3356 180.001 29.3356ZM180.001 51.3356C178.55 51.3356 177.132 50.9055 175.926 50.0997C174.721 49.2939 173.781 48.1486 173.226 46.8086C172.67 45.4686 172.525 43.9941 172.808 42.5716C173.091 41.149 173.79 39.8424 174.815 38.8168C175.841 37.7912 177.147 37.0928 178.57 36.8098C179.993 36.5269 181.467 36.6721 182.807 37.2271C184.147 37.7822 185.292 38.7221 186.098 39.9281C186.904 41.134 187.334 42.5518 187.334 44.0022C187.334 45.9472 186.561 47.8124 185.186 49.1877C183.811 50.563 181.946 51.3356 180.001 51.3356Z" fill="#005294"/>
<path d="M214.078 50.9666L212.45 50.028C213.183 46.0403 213.183 41.9524 212.45 37.9646L214.078 37.026C215.33 36.3037 216.427 35.3419 217.308 34.1955C218.188 33.0491 218.834 31.7406 219.208 30.3446C219.583 28.9487 219.679 27.4926 219.49 26.0595C219.302 24.6265 218.834 23.2446 218.111 21.9926C217.389 20.7407 216.427 19.6433 215.281 18.7631C214.134 17.8828 212.826 17.237 211.43 16.8625C210.034 16.4879 208.578 16.392 207.145 16.5802C205.712 16.7684 204.33 17.237 203.078 17.9593L201.446 18.9016C198.365 16.2687 194.823 14.2275 191 12.881V11C191 8.08259 189.841 5.2847 187.778 3.22179C185.715 1.15889 182.917 -3.05176e-05 180 -3.05176e-05C177.083 -3.05176e-05 174.285 1.15889 172.222 3.22179C170.159 5.2847 169 8.08259 169 11V12.881C165.177 14.2324 161.637 16.2785 158.557 18.9163L156.918 17.9666C154.39 16.5079 151.386 16.1134 148.566 16.8698C145.747 17.6262 143.344 19.4716 141.885 22C140.426 24.5284 140.032 27.5327 140.788 30.352C141.544 33.1713 143.39 35.5746 145.918 37.0333L147.546 37.972C146.813 41.9597 146.813 46.0476 147.546 50.0353L145.918 50.974C143.39 52.4327 141.544 54.836 140.788 57.6553C140.032 60.4746 140.426 63.4789 141.885 66.0073C143.344 68.5357 145.747 70.3811 148.566 71.1375C151.386 71.8939 154.39 71.4993 156.918 70.0406L158.55 69.0983C161.633 71.7317 165.176 73.7728 169 75.119V77C169 79.9174 170.159 82.7152 172.222 84.7781C174.285 86.841 177.083 88 180 88C182.917 88 185.715 86.841 187.778 84.7781C189.841 82.7152 191 79.9174 191 77V75.119C194.823 73.7676 198.363 71.7214 201.443 69.0836L203.082 70.0296C205.61 71.4883 208.614 71.8829 211.434 71.1265C214.253 70.3701 216.656 68.5247 218.115 65.9963C219.574 63.4679 219.968 60.4636 219.212 57.6443C218.455 54.825 216.61 52.4217 214.082 50.963L214.078 50.9666ZM204.735 37.1213C205.977 41.6205 205.977 46.3721 204.735 50.8713C204.518 51.6544 204.568 52.4873 204.876 53.2393C205.184 53.9912 205.733 54.6196 206.437 55.0256L210.411 57.321C211.254 57.8072 211.869 58.6082 212.121 59.5479C212.373 60.4876 212.241 61.4888 211.755 62.3315C211.269 63.1741 210.468 63.7891 209.528 64.0411C208.588 64.2931 207.587 64.1615 206.745 63.6753L202.763 61.3726C202.058 60.9647 201.238 60.8027 200.431 60.9122C199.625 61.0218 198.878 61.3966 198.308 61.9776C195.044 65.3094 190.932 67.6866 186.417 68.8526C185.628 69.0553 184.93 69.5144 184.431 70.1577C183.933 70.8009 183.663 71.5918 183.663 72.4056V77C183.663 77.9724 183.277 78.9051 182.589 79.5927C181.901 80.2803 180.969 80.6666 179.996 80.6666C179.024 80.6666 178.091 80.2803 177.404 79.5927C176.716 78.9051 176.33 77.9724 176.33 77V72.4093C176.33 71.5955 176.06 70.8046 175.561 70.1613C175.063 69.5181 174.364 69.059 173.576 68.8563C169.06 67.6855 164.949 65.3032 161.689 61.9666C161.119 61.3856 160.371 61.0108 159.565 60.9012C158.758 60.7917 157.938 60.9537 157.234 61.3616L153.259 63.6606C152.842 63.9052 152.38 64.0648 151.901 64.1303C151.422 64.1958 150.935 64.1659 150.467 64.0423C150 63.9187 149.561 63.7039 149.177 63.4102C148.793 63.1164 148.471 62.7496 148.229 62.3308C147.987 61.9121 147.831 61.4496 147.768 60.9701C147.706 60.4906 147.739 60.0034 147.866 59.5368C147.993 59.0701 148.21 58.6331 148.507 58.2509C148.803 57.8688 149.172 57.549 149.592 57.31L153.567 55.0146C154.271 54.6086 154.82 53.9802 155.128 53.2283C155.436 52.4763 155.485 51.6434 155.268 50.8603C154.027 46.3611 154.027 41.6095 155.268 37.1103C155.481 36.3289 155.429 35.4989 155.121 34.75C154.812 34.0012 154.265 33.3755 153.563 32.9706L149.589 30.6753C148.746 30.1891 148.131 29.388 147.879 28.4484C147.627 27.5087 147.759 26.5074 148.245 25.6648C148.731 24.8222 149.532 24.2072 150.472 23.9552C151.411 23.7032 152.413 23.8347 153.255 24.321L157.237 26.6236C157.94 27.0325 158.758 27.1964 159.564 27.0896C160.37 26.9827 161.117 26.6112 161.689 26.0333C164.952 22.7016 169.064 20.3244 173.58 19.1583C174.37 18.955 175.07 18.4937 175.569 17.8475C176.068 17.2012 176.337 16.407 176.333 15.5906V11C176.333 10.0275 176.72 9.09488 177.407 8.40724C178.095 7.71961 179.027 7.3333 180 7.3333C180.972 7.3333 181.905 7.71961 182.593 8.40724C183.28 9.09488 183.667 10.0275 183.667 11V15.5906C183.666 16.4045 183.937 17.1953 184.435 17.8386C184.934 18.4819 185.632 18.941 186.42 19.1436C190.938 20.3139 195.049 22.6962 198.311 26.0333C198.881 26.6143 199.629 26.9892 200.435 27.0987C201.242 27.2083 202.062 27.0463 202.766 26.6383L206.741 24.3393C207.158 24.0947 207.619 23.9351 208.099 23.8696C208.578 23.8041 209.065 23.834 209.533 23.9576C210 24.0812 210.438 24.2961 210.823 24.5898C211.207 24.8835 211.529 25.2503 211.771 25.6691C212.013 26.0879 212.169 26.5503 212.231 27.0299C212.294 27.5094 212.261 27.9965 212.134 28.4632C212.007 28.9298 211.789 29.3668 211.493 29.749C211.197 30.1312 210.828 30.451 210.408 30.69L206.433 32.9853C205.733 33.3912 205.187 34.0174 204.879 34.7662C204.572 35.515 204.522 36.3443 204.735 37.125V37.1213Z" fill="#005294"/>
</g>
<defs>
<clipPath id="clip0_6922_12478">
<rect width="136" height="136" fill="white"/>
</clipPath>
<clipPath id="clip1_6922_12478">
<rect width="88" height="88" fill="white" transform="translate(136)"/>
</clipPath>
</defs>
</svg>
