<svg width="25" height="25" viewBox="0 0 25 25" fill="none" xmlns="http://www.w3.org/2000/svg">
<g clip-path="url(#clip0_6944_991)">
<path d="M16.5002 6.875C16.7655 6.875 17.0198 6.98036 17.2074 7.16789C17.3949 7.35543 17.5002 7.60978 17.5002 7.875C17.5002 8.14022 17.3949 8.39457 17.2074 8.58211C17.0198 8.76964 16.7655 8.875 16.5002 8.875H8.50024C8.23503 8.875 7.98067 8.76964 7.79314 8.58211C7.6056 8.39457 7.50024 8.14022 7.50024 7.875C7.50024 7.60978 7.6056 7.35543 7.79314 7.16789C7.98067 6.98036 8.23503 6.875 8.50024 6.875H16.5002ZM24.2072 24.582C24.0197 24.7695 23.7654 24.8748 23.5002 24.8748C23.2351 24.8748 22.9808 24.7695 22.7932 24.582L20.3862 22.175C19.6734 22.63 18.8459 22.8727 18.0002 22.875C17.1102 22.875 16.2402 22.6111 15.5002 22.1166C14.7602 21.6221 14.1834 20.9193 13.8428 20.0971C13.5022 19.2748 13.4131 18.37 13.5867 17.4971C13.7603 16.6242 14.1889 15.8224 14.8183 15.193C15.4476 14.5637 16.2494 14.1351 17.1223 13.9615C17.9953 13.7878 18.9001 13.8769 19.7223 14.2175C20.5446 14.5581 21.2474 15.1349 21.7419 15.8749C22.2363 16.615 22.5002 17.485 22.5002 18.375C22.498 19.2206 22.2552 20.0482 21.8002 20.761L24.2072 23.168C24.3947 23.3555 24.5 23.6098 24.5 23.875C24.5 24.1402 24.3947 24.3945 24.2072 24.582ZM18.0002 20.875C18.4947 20.875 18.978 20.7284 19.3892 20.4537C19.8003 20.179 20.1207 19.7885 20.3099 19.3317C20.4992 18.8749 20.5487 18.3722 20.4522 17.8873C20.3557 17.4023 20.1176 16.9569 19.768 16.6072C19.4184 16.2576 18.9729 16.0195 18.488 15.923C18.003 15.8266 17.5004 15.8761 17.0435 16.0653C16.5867 16.2545 16.1963 16.575 15.9216 16.9861C15.6469 17.3972 15.5002 17.8805 15.5002 18.375C15.5002 19.038 15.7636 19.6739 16.2325 20.1428C16.7013 20.6116 17.3372 20.875 18.0002 20.875ZM13.5002 22.875H7.50024C6.70459 22.875 5.94153 22.5589 5.37892 21.9963C4.81631 21.4337 4.50024 20.6706 4.50024 19.875V5.875C4.50024 5.07935 4.81631 4.31629 5.37892 3.75368C5.94153 3.19107 6.70459 2.875 7.50024 2.875H19.5002C19.7655 2.875 20.0198 2.98036 20.2074 3.16789C20.3949 3.35543 20.5002 3.60978 20.5002 3.875V11.875C20.5002 12.1402 20.6056 12.3946 20.7931 12.5821C20.9807 12.7696 21.235 12.875 21.5002 12.875C21.7655 12.875 22.0198 12.7696 22.2074 12.5821C22.3949 12.3946 22.5002 12.1402 22.5002 11.875V3.875C22.5002 3.07935 22.1842 2.31629 21.6216 1.75368C21.059 1.19107 20.2959 0.875 19.5002 0.875L7.50024 0.875C6.17465 0.876588 4.9038 1.40388 3.96646 2.34122C3.02913 3.27856 2.50183 4.54941 2.50024 5.875V19.875C2.50183 21.2006 3.02913 22.4714 3.96646 23.4088C4.9038 24.3461 6.17465 24.8734 7.50024 24.875H13.5002C13.7655 24.875 14.0198 24.7696 14.2074 24.5821C14.3949 24.3946 14.5002 24.1402 14.5002 23.875C14.5002 23.6098 14.3949 23.3554 14.2074 23.1679C14.0198 22.9804 13.7655 22.875 13.5002 22.875Z" fill="white"/>
</g>
<defs>
<clipPath id="clip0_6944_991">
<rect width="24" height="24" fill="white" transform="translate(0.5 0.875)"/>
</clipPath>
</defs>
</svg>
