<svg width="25" height="25" viewBox="0 0 25 25" fill="none" xmlns="http://www.w3.org/2000/svg">
<g clip-path="url(#clip0_6944_1004)">
<path d="M24.4999 12.1221C24.3553 9.7821 23.5291 7.53559 22.1231 5.6595C20.7171 3.78341 18.7929 2.35977 16.5876 1.56407C14.3823 0.768373 11.9924 0.635409 9.71247 1.18157C7.43253 1.72773 5.36225 2.92915 3.75686 4.63769C2.15147 6.34624 1.08115 8.48724 0.67785 10.7967C0.274551 13.1062 0.555904 15.4833 1.48722 17.6348C2.41854 19.7863 3.95912 21.6183 5.91902 22.9048C7.87892 24.1914 10.1725 24.8763 12.5169 24.8751H19.4999C20.8256 24.8738 22.0966 24.3465 23.034 23.4091C23.9714 22.4718 24.4986 21.2008 24.4999 19.8751V12.1221ZM22.4999 19.8751C22.4999 20.6707 22.1838 21.4338 21.6212 21.9964C21.0586 22.559 20.2956 22.8751 19.4999 22.8751H12.5169C11.1058 22.8744 9.71075 22.5764 8.42261 22.0004C7.13446 21.4244 5.98218 20.5833 5.04091 19.5321C4.09508 18.4813 3.38484 17.2405 2.9578 15.8929C2.53077 14.5452 2.39681 13.1218 2.56491 11.7181C2.83034 9.50402 3.8251 7.44126 5.39235 5.855C6.9596 4.26874 9.01021 3.24919 11.2209 2.95707C11.6521 2.90303 12.0863 2.87564 12.5209 2.87507C14.8514 2.86872 17.1097 3.68298 18.8999 5.17508C19.9454 6.04402 20.8036 7.11623 21.4224 8.32671C22.0413 9.53718 22.4078 10.8607 22.4999 12.2171V19.8751Z" fill="white"/>
<path d="M8.49976 9.87475H12.4998C12.765 9.87475 13.0193 9.7694 13.2069 9.58186C13.3944 9.39432 13.4998 9.13997 13.4998 8.87475C13.4998 8.60954 13.3944 8.35518 13.2069 8.16765C13.0193 7.98011 12.765 7.87476 12.4998 7.87476H8.49976C8.23454 7.87476 7.98019 7.98011 7.79265 8.16765C7.60511 8.35518 7.49976 8.60954 7.49976 8.87475C7.49976 9.13997 7.60511 9.39432 7.79265 9.58186C7.98019 9.7694 8.23454 9.87475 8.49976 9.87475Z" fill="white"/>
<path d="M16.4998 11.8752H8.49976C8.23454 11.8752 7.98019 11.9806 7.79265 12.1681C7.60511 12.3557 7.49976 12.61 7.49976 12.8752C7.49976 13.1405 7.60511 13.3948 7.79265 13.5824C7.98019 13.7699 8.23454 13.8753 8.49976 13.8753H16.4998C16.765 13.8753 17.0193 13.7699 17.2069 13.5824C17.3944 13.3948 17.4998 13.1405 17.4998 12.8752C17.4998 12.61 17.3944 12.3557 17.2069 12.1681C17.0193 11.9806 16.765 11.8752 16.4998 11.8752Z" fill="white"/>
<path d="M16.4998 15.875H8.49976C8.23454 15.875 7.98019 15.9804 7.79265 16.1679C7.60511 16.3554 7.49976 16.6098 7.49976 16.875C7.49976 17.1402 7.60511 17.3946 7.79265 17.5821C7.98019 17.7697 8.23454 17.875 8.49976 17.875H16.4998C16.765 17.875 17.0193 17.7697 17.2069 17.5821C17.3944 17.3946 17.4998 17.1402 17.4998 16.875C17.4998 16.6098 17.3944 16.3554 17.2069 16.1679C17.0193 15.9804 16.765 15.875 16.4998 15.875Z" fill="white"/>
</g>
<defs>
<clipPath id="clip0_6944_1004">
<rect width="24" height="24" fill="white" transform="translate(0.5 0.875)"/>
</clipPath>
</defs>
</svg>
